<svg xmlns="http://www.w3.org/2000/svg" width="228.595" height="59" viewBox="0 0 228.595 59">
  <defs>
    <style>
      .cls-1 {
        fill-rule: evenodd;
      }

      .cls-2 {
        font-size: 35px;
        font-family: AlphaMondayRegular, Alpha Monday;
      }
    </style>
  </defs>
  <g id="Group_25" data-name="Group 25" transform="translate(-35.405 -22)">
    <g id="eyeglasses" transform="translate(35.405 20.313)">
      <path id="Path_1" data-name="Path 1" class="cls-1" d="M21.743,43.738a13,13,0,1,0-13-13A13,13,0,0,0,21.743,43.738Zm0,6.5A19.493,19.493,0,1,0,2.25,30.743,19.493,19.493,0,0,0,21.743,50.236Zm51.982-6.5a13,13,0,1,0-13-13A13,13,0,0,0,73.725,43.738Zm0,6.5A19.493,19.493,0,1,0,54.232,30.743,19.493,19.493,0,0,0,73.725,50.236Z" transform="translate(4.248)"/>
      <path id="Path_2" data-name="Path 2" class="cls-1" d="M51.982,20a6.5,6.5,0,0,0-6.5,6.5h-6.5a13,13,0,1,1,25.991,0h-6.5A6.5,6.5,0,0,0,51.982,20ZM0,26.5a3.249,3.249,0,0,1,3.249-3.249h6.5v6.5h-6.5A3.249,3.249,0,0,1,0,26.5Zm100.714,3.249h-6.5v-6.5h6.5a3.249,3.249,0,0,1,0,6.5Z" transform="translate(0 4.248)"/>
    </g>
    <text id="Shady" class="cls-2" transform="translate(151 65)"><tspan x="0" y="0">Shady</tspan></text>
  </g>
</svg>
